<svg width="24" height="24" viewBox="0 0 24 24" fill="none" xmlns="http://www.w3.org/2000/svg">
    <path d="M12 15C13.6569 15 15 13.6569 15 12C15 10.3431 13.6569 9 12 9C10.3431 9 9 10.3431 9 12C9 13.6569 10.3431 15 12 15Z" fill="currentColor"/>
    <path d="M19.4 15C19.2669 15.3016 19.2272 15.6362 19.286 15.9606L20.99 18.86C21.0707 19.0008 21.0767 19.1698 21.0062 19.3154C20.9357 19.461 20.7956 19.5675 20.63 19.6L18.4 20.39C18.1783 20.4499 18.0088 20.6194 17.949 20.841L17.16 23.07C17.1275 23.2356 17.021 23.3757 16.8754 23.4462C16.7298 23.5167 16.5608 23.5107 16.42 23.43L13.52 21.726C13.1956 21.7848 12.8614 21.7848 12.537 21.726L9.637 23.43C9.49619 23.5107 9.32721 23.5167 9.18162 23.4462C9.03602 23.3757 8.92952 23.2356 8.897 23.07L8.108 20.84C8.04818 20.6183 7.87865 20.4488 7.657 20.389L5.427 19.6C5.26144 19.5675 5.12134 19.461 5.05083 19.3154C4.98033 19.1698 4.98635 19.0008 5.067 18.86L6.771 15.96C6.82977 15.6357 6.79011 15.3011 6.657 15L5.067 12.14C4.98635 11.9992 4.98033 11.8302 5.05083 11.6846C5.12134 11.539 5.26144 11.4325 5.427 11.4L7.657 10.61C7.87865 10.5512 8.04818 10.3817 8.108 10.16L8.897 7.93C8.92952 7.76444 9.03602 7.62434 9.18162 7.55383C9.32721 7.48333 9.49619 7.48935 9.637 7.57L12.537 9.274C12.8614 9.21523 13.1956 9.21523 13.52 9.274L16.42 7.57C16.5608 7.48935 16.7298 7.48333 16.8754 7.55383C17.021 7.62434 17.1275 7.76444 17.16 7.93L17.949 10.16C18.0088 10.3817 18.1783 10.5512 18.4 10.61L20.63 11.4C20.7956 11.4325 20.9357 11.539 21.0062 11.6846C21.0767 11.8302 21.0707 11.9992 20.99 12.14L19.286 15.04C19.2272 15.3638 19.2669 15.6984 19.4 15Z" fill="currentColor"/>
</svg>